<?xml version="1.0" encoding="UTF-8" standalone="no"?>
<svg
   xmlns:dc="http://purl.org/dc/elements/1.1/"
   xmlns:cc="http://creativecommons.org/ns#"
   xmlns:rdf="http://www.w3.org/1999/02/22-rdf-syntax-ns#"
   xmlns:svg="http://www.w3.org/2000/svg"
   xmlns="http://www.w3.org/2000/svg"
   xmlns:sodipodi="http://sodipodi.sourceforge.net/DTD/sodipodi-0.dtd"
   xmlns:inkscape="http://www.inkscape.org/namespaces/inkscape"
   width="260"
   height="260"
   viewBox="0 0 260 260"
   version="1.1"
   id="svg5387"
   inkscape:version="0.91+devel r14842"
   sodipodi:docname="folderz.svg">
  <metadata
     id="metadata5391">
    <rdf:RDF>
      <cc:Work
         rdf:about="">
        <dc:format>image/svg+xml</dc:format>
        <dc:type
           rdf:resource="http://purl.org/dc/dcmitype/StillImage" />
        <dc:title>com-chip</dc:title>
      </cc:Work>
    </rdf:RDF>
  </metadata>
  <sodipodi:namedview
     pagecolor="#ffffff"
     bordercolor="#666666"
     borderopacity="1"
     objecttolerance="10"
     gridtolerance="10"
     guidetolerance="10"
     inkscape:pageopacity="0"
     inkscape:pageshadow="2"
     inkscape:window-width="640"
     inkscape:window-height="480"
     id="namedview5389"
     showgrid="false"
     inkscape:current-layer="svg5387" />
  <!-- Generator: Sketch 3.7.2 (28276) - http://www.bohemiancoding.com/sketch -->
  <title
     id="title5367">com-chip</title>
  <desc
     id="desc5369">Created with Sketch.</desc>
  <defs
     id="defs5371" />
  <g
     id="64px-Line"
     style="fill:#5891c1;fill-opacity:1;fill-rule:evenodd;stroke:none;stroke-width:1"
     transform="matrix(3.1568192,0,0,3.1601099,28.599784,-0.08600149)">
    <g
       id="com-hard-drive"
       style="fill:#5891c1;fill-opacity:1" />
    <path
       d="m 14,60 h 36 c 2.206,0 4,-1.794 4,-4 V 8 C 54,5.794 52.206,4 50,4 H 14 c -2.206,0 -4,1.794 -4,4 v 48 c 0,2.206 1.794,4 4,4 z M 12,8 c 0,-1.103 0.897,-2 2,-2 h 36 c 1.103,0 2,0.897 2,2 v 48 c 0,1.103 -0.897,2 -2,2 H 14 c -1.103,0 -2,-0.897 -2,-2 z"
       id="Shape"
       style="fill:#5891c1;fill-opacity:1"
       inkscape:connector-curvature="0" />
    <path
       d="m 32,32 c 3.309,0 6,-2.691 6,-6 0,-3.309 -2.691,-6 -6,-6 -3.309,0 -6,2.691 -6,6 0,3.309 2.691,6 6,6 z m 0,-10 c 2.206,0 4,1.794 4,4 0,2.206 -1.794,4 -4,4 -2.206,0 -4,-1.794 -4,-4 0,-2.206 1.794,-4 4,-4 z"
       id="path5375"
       style="fill:#5891c1;fill-opacity:1"
       inkscape:connector-curvature="0" />
    <circle
       id="Oval"
       cx="16"
       cy="10"
       r="2"
       style="fill:#5891c1;fill-opacity:1" />
    <circle
       id="circle5378"
       cx="48"
       cy="10"
       r="2"
       style="fill:#5891c1;fill-opacity:1" />
    <circle
       id="circle5380"
       cx="48"
       cy="54"
       r="2"
       style="fill:#5891c1;fill-opacity:1" />
    <circle
       id="circle5382"
       cx="16"
       cy="54"
       r="2"
       style="fill:#5891c1;fill-opacity:1" />
    <path
       d="m 21.675,40.734 -3.132,1.91 c -0.395,0.223 -0.758,0.499 -1.078,0.82 -1.949,1.95 -1.949,5.122 0,7.071 C 18.409,51.48 19.664,52 21,52 c 1.336,0 2.591,-0.52 3.535,-1.464 0.287,-0.287 0.538,-0.607 0.746,-0.952 0.011,-0.017 0.02,-0.033 0.029,-0.05 l 3.555,-5.831 C 29.898,43.884 30.946,44 32,44 41.925,44 50,35.925 50,26 50,16.075 41.925,8 32,8 22.075,8 14,16.075 14,26 c 0,5.882 2.908,11.384 7.675,14.734 z m 1.895,7.812 c -0.011,0.016 -0.02,0.033 -0.028,0.05 -0.119,0.188 -0.261,0.365 -0.421,0.526 -1.133,1.133 -3.109,1.133 -4.242,0 -1.17,-1.17 -1.17,-3.073 10e-4,-4.244 0.195,-0.196 0.416,-0.363 0.657,-0.498 0.011,-0.006 0.022,-0.012 0.033,-0.019 l 10.429,-6.36 z M 32,10 c 8.822,0 16,7.178 16,16 0,8.822 -7.178,16 -16,16 -0.674,0 -1.345,-0.055 -2.012,-0.138 l 3.866,-6.341 c 0.24,-0.394 0.18,-0.901 -0.146,-1.228 -0.327,-0.327 -0.836,-0.387 -1.228,-0.147 l -8.92,5.439 C 18.885,36.674 16,31.525 16,26 16,17.178 23.178,10 32,10 Z"
       id="path5384"
       style="fill:#5891c1;fill-opacity:1"
       inkscape:connector-curvature="0" />
  </g>
  <text
     xml:space="preserve"
     style="font-style:italic;font-variant:normal;font-weight:bold;font-stretch:normal;font-size:53.32223129px;line-height:99.97918701px;font-family:'English 157';-inkscape-font-specification:'English 157';letter-spacing:0px;word-spacing:0px;fill:#5891c1;fill-opacity:1;stroke:none;stroke-width:3.99916744px;stroke-linecap:butt;stroke-linejoin:miter;stroke-opacity:1"
     x="45.382202"
     y="247.13252"
     id="text5395"><tspan
       sodipodi:role="line"
       id="tspan5393"
       x="45.382202"
       y="247.13252"
       style="font-style:normal;font-variant:normal;font-weight:bold;font-stretch:normal;font-family:'DIN Alternate';-inkscape-font-specification:'DIN Alternate Bold';fill:#5891c1;fill-opacity:1;stroke-width:3.99916744px">Folderz</tspan></text>
</svg>
